<?xml version="1.0" standalone="no"?>
<!DOCTYPE svg PUBLIC "-//W3C//DTD SVG 20010904//EN"
 "http://www.w3.org/TR/2001/REC-SVG-20010904/DTD/svg10.dtd">
<svg version="1.0" xmlns="http://www.w3.org/2000/svg"
 width="512.000000pt" height="512.000000pt" viewBox="0 0 512.000000 512.000000"
 preserveAspectRatio="xMidYMid meet">
<metadata>
Created by potrace 1.14, written by Peter Selinger 2001-2017
</metadata>
<g transform="translate(0.000000,512.000000) scale(0.100000,-0.100000)"
fill="#000000" stroke="none">
<path d="M2617 4935 c-1 -1 -56 -5 -122 -9 -66 -3 -136 -8 -155 -11 -125 -17
-168 -25 -250 -46 -362 -89 -654 -266 -878 -533 -225 -266 -383 -621 -456
-1026 -22 -119 -23 -131 -31 -196 -4 -33 -9 -70 -11 -84 -18 -116 -25 -598
-11 -800 7 -108 30 -293 47 -390 6 -30 13 -68 16 -85 2 -16 16 -74 29 -128
151 -602 464 -1023 926 -1245 147 -71 327 -129 484 -157 17 -2 39 -7 50 -9 11
-2 51 -7 88 -11 37 -3 78 -8 90 -11 33 -7 394 -6 452 1 114 13 177 23 264 40
185 36 473 161 616 267 191 142 346 310 446 483 58 101 67 118 104 210 45 111
82 248 101 365 3 19 7 43 10 53 6 18 6 19 -46 22 -19 2 -69 6 -110 9 -41 3
-115 8 -165 11 -49 3 -115 7 -145 10 -30 2 -104 7 -165 10 -60 4 -112 7 -115
7 -20 1 -26 -6 -28 -34 -12 -151 -110 -394 -209 -515 -119 -147 -299 -260
-486 -307 -108 -27 -133 -30 -307 -30 -183 -1 -231 4 -338 34 -499 140 -766
618 -818 1464 -4 75 -4 542 1 609 35 509 120 827 282 1057 130 185 351 317
596 355 178 28 391 26 540 -4 363 -76 604 -327 692 -724 l17 -78 107 6 c58 3
117 8 131 10 14 2 70 7 125 10 55 4 116 8 135 10 19 2 76 6 127 10 124 9 143
11 150 19 10 10 -52 235 -96 347 -48 122 -120 253 -199 359 -60 81 -213 239
-277 286 -22 16 -42 31 -45 34 -56 57 -397 230 -453 230 -9 0 -18 4 -21 8 -3
5 -31 15 -63 22 -32 8 -60 14 -63 15 -94 23 -232 44 -335 51 -90 6 -224 11
-228 9z"/>
<path d="M3807 3497 c-5 -15 1 -109 8 -115 2 -2 18 -6 35 -8 94 -11 100 -32
100 -367 0 -263 1 -274 23 -317 16 -32 34 -50 64 -65 23 -11 42 -22 43 -25 0
-3 -19 -14 -42 -25 -32 -15 -49 -32 -65 -65 -22 -43 -23 -54 -23 -318 0 -234
-2 -279 -17 -309 -17 -38 -56 -58 -118 -62 -17 -1 -13 -115 4 -122 24 -9 123
10 171 34 50 24 84 69 101 131 7 25 12 150 13 318 2 264 3 279 22 305 12 16
38 33 59 39 l38 10 1 64 0 63 -38 11 c-22 6 -48 23 -60 39 -19 26 -20 41 -22
310 -1 198 -5 294 -14 322 -28 89 -95 139 -200 150 -30 4 -60 8 -67 10 -6 2
-13 -2 -16 -8z"/>
<path d="M1856 3483 c-65 -19 -120 -76 -136 -141 -7 -32 -12 -150 -13 -326 -2
-262 -3 -276 -23 -303 -12 -16 -36 -32 -57 -37 -41 -10 -43 -17 -39 -91 4 -50
5 -52 39 -61 21 -5 45 -21 57 -37 20 -27 21 -42 23 -295 1 -146 4 -283 7 -304
13 -91 74 -156 166 -177 53 -12 120 -14 121 -3 1 4 2 30 3 59 l2 52 -41 7
c-55 8 -84 32 -95 79 -5 22 -9 147 -9 278 0 293 -3 318 -47 363 -19 18 -46 37
-59 40 -30 7 -33 24 -5 24 11 0 20 4 20 8 0 5 11 14 25 20 13 6 32 26 42 44
16 29 19 69 23 328 6 337 6 341 82 360 24 6 47 12 52 14 5 1 10 28 11 60 l1
57 -51 -2 c-28 -1 -73 -8 -99 -16z"/>
<path d="M2279 3331 l-45 -6 0 -689 1 -690 68 2 c38 1 73 4 78 7 5 4 9 27 9
52 l0 46 49 -46 c27 -25 66 -53 87 -62 55 -24 179 -24 224 -1 97 50 155 125
197 251 22 70 26 98 27 220 1 199 -10 269 -64 375 -64 126 -184 184 -322 155
-48 -10 -110 -48 -150 -93 l-36 -40 -1 227 c0 124 0 243 -1 264 0 36 -1 37
-37 35 -21 0 -59 -4 -84 -7z m412 -534 c83 -56 113 -153 112 -369 -1 -187 -48
-314 -129 -353 -79 -37 -171 -12 -237 66 l-36 41 1 247 c1 233 2 248 22 276
74 105 189 145 267 92z"/>
<path d="M3516 2920 c-49 -32 -76 -63 -107 -126 -11 -25 -23 -44 -25 -42 -1 2
-4 32 -5 67 -4 115 -1 111 -80 111 -38 0 -69 -3 -70 -7 -1 -5 -2 -225 -3 -491
l-1 -482 23 -1 c28 -1 73 -1 115 0 l32 1 0 290 c-1 275 0 293 22 360 46 141
112 198 217 186 l53 -5 13 76 c14 91 12 94 -78 92 -50 -2 -72 -8 -106 -29z"/>
</g>
</svg>
